<?xml version="1.0" encoding="utf-8"?>
<!-- Generator: Adobe Illustrator 25.0.0, SVG Export Plug-In . SVG Version: 6.00 Build 0)  -->
<svg version="1.1" id="Capa_1" xmlns="http://www.w3.org/2000/svg" xmlns:xlink="http://www.w3.org/1999/xlink" x="0px" y="0px"
	 viewBox="0 0 400 300" style="enable-background:new 0 0 400 300;" xml:space="preserve">
<style type="text/css">
	.st0{fill:#DC2083;}
	.st1{fill:#5DB130;}
</style>
<g>
	<g>
		<path d="M57.19,52.84c18.31,20.37,28,47.98,26.93,75.31c-0.15,3.82-0.49,7.63-1.09,11.4c-0.26,1.65-0.49,3.35-1.05,4.94
			c-0.3,0.86-0.93,2.54-2.02,2.68c0.8,0.61,1.61,1.22,2.41,1.84c-3.25-11.44-5.69-23.12-7.14-34.93c-0.72-5.86-1.22-11.75-1.5-17.65
			c-0.14-2.95-0.22-5.9-0.25-8.86c-0.01-1.43-0.01-2.85,0-4.28c0.01-0.94-0.18-2.41,0.54-3.16c1.05-1.09,3.36-0.51,4.6-0.15
			c2.47,0.72,4.81,1.87,7.03,3.17c4.46,2.6,8.4,5.94,12.21,9.4c8.52,7.73,16.71,15.85,24.56,24.26c4.44,4.76,8.81,9.61,13,14.59
			c3.67,4.36,7.07,9.09,7.95,14.84c0.8-1.05,1.61-2.11,2.41-3.16c-6.66-0.22-13.19-1.33-19.57-3.26c-2.68-0.82-4.45,3.24-1.93,4.57
			c8.67,4.57,17.47,8.87,26.4,12.89c0.42-1.55,0.84-3.11,1.26-4.66c-35.11,3.31-70.36,6.64-104.81,14.42
			c-9.61,2.17-19.15,4.7-28.55,7.64c-2.14,0.67-2.61,4.44,0,4.82c34.84,5.12,70.07,7.42,105.28,6.72
			c16.45-0.32,33.91-0.06,49.23-6.87c7.03-3.12,13.41-7.5,19.5-12.17c5.94-4.56,11.76-9.31,17.48-14.16
			c12.43-10.55,24.14-22.45,30.24-37.86c0.49-1.24-0.55-2.77-1.75-3.08c-22.4-5.64-45.79-7.38-68.78-4.93
			c-19.45,2.07-40.25,6.79-54.78,20.81c-3.54,3.42-7.02,7.52-7.58,12.6c-0.55,4.99,2.4,9.37,5.97,12.55
			c3.76,3.36,8.13,6.15,12.41,8.8c4.48,2.77,9.12,5.28,13.87,7.56c19.05,9.13,39.63,14.55,60.37,18.14c2.54,0.44,5.11,0.77,7.63,1.3
			c2.33,0.49,4.61,1.21,6.24,3.04c1.61,1.81,2.53,4.29,3.47,6.5c1.01,2.4,1.96,4.83,2.98,7.23c3.8,8.96,9.75,18.46,20.03,20.6
			c2.43,0.51,4.82,0.49,7.25,0.01c1.69-0.34,2.15-2.33,1.49-3.67c-1.99-4.09-4.64-7.81-6.77-11.83c-1.88-3.55-3.15-7.42-3.5-11.43
			c-0.71-8.12,1.62-16.19,5.21-23.41c7.46-15.02,20.18-26.05,30.46-39.02c5.71-7.21,10.64-14.98,13.41-23.82
			c0.3-0.95-0.18-2.39-1.15-2.82c-21.93-9.67-46.62-7.06-68.73,0.6c-11.21,3.88-22,8.92-32.6,14.21
			c-9.62,4.8-19.08,9.94-28.17,15.69c-9.13,5.77-17.9,12.17-25.94,19.38c-7.94,7.12-15.67,15.16-21.35,24.24
			c-2.87,4.58-5.12,9.73-5.5,15.18c-0.36,5.15,1.43,10.08,4.76,13.97c3.15,3.67,7.5,6.21,11.83,8.23
			c5.15,2.41,10.51,4.43,15.84,6.41c11.47,4.27,23.17,7.92,35.02,10.94c11.71,2.98,23.64,5.53,35.64,7.04
			c5.89,0.74,12.01,0.94,17.77-0.76c5.12-1.51,9.6-4.51,13.46-8.14c3.91-3.68,7.19-7.99,10.37-12.3c3.39-4.61,6.57-9.37,9.57-14.24
			c12.11-19.69,21.18-41.04,29.95-62.36c2-4.86,5.67-10.84,1.03-15.34c-1.81-1.75-4.17-2.75-6.44-3.73
			c-2.86-1.23-5.76-2.34-8.7-3.34c-11.8-4.01-24.03-6.94-36.13-9.88c-24.44-5.95-49.15-10.79-74.02-14.52
			c-12.51-1.87-25.05-3.47-37.63-4.79c-12.43-1.3-24.91-2.13-37.29-3.78c-6.06-0.81-12.09-1.86-18.04-3.24
			c0.5,0.38,1,0.77,1.49,1.15c-0.16-0.29-0.1,0.2,0.01,0.14c0.12-0.07,0.16-0.26,0.29-0.33c0.52-0.28,0.96-0.77,1.52-1.04
			c1.47-0.71,3.17-1.09,4.72-1.58c3.52-1.12,7.04-2.19,10.59-3.22c7.08-2.07,14.21-3.98,21.37-5.76
			c14.43-3.59,28.98-6.65,43.58-9.44c27.22-5.19,54.98-9.46,82.77-7.77c15.29,0.93,30.43,3.85,44.76,9.36
			c-0.58-0.58-1.16-1.16-1.75-1.75c1.27,5.95-2.75,11.52-6.43,15.78c-4.79,5.55-9.98,10.79-14.99,16.15
			c-5.19,5.56-10.38,11.13-15.58,16.69c-2.6,2.78-5.19,5.56-7.79,8.34c-1.07,1.14-3.07,2.61-3.28,4.22
			c-0.18,1.31,0.49,2.9,1.11,4.02c2.38,4.31,7.68,6.05,12.24,6.75c6.77,1.03,13.83,0.9,20.66,1.03c7.41,0.14,14.83,0.12,22.24-0.07
			c3.76-0.1,7.52-0.24,11.27-0.42c3.28-0.16,6.86-0.78,10.13-0.24c3.55,0.59,4.95,3.49,6.47,6.41c1.93,3.69,3.85,7.39,5.77,11.08
			c3.94,7.57,7.89,15.15,11.83,22.72c1.49,2.85,5.8,0.33,4.32-2.52c-4.33-8.31-8.66-16.63-12.99-24.94
			c-2.04-3.91-3.89-8.01-6.21-11.77c-2.21-3.59-5.35-5.63-9.57-6.03c-4.23-0.4-8.65,0.26-12.89,0.44c-4.8,0.21-9.6,0.34-14.41,0.4
			c-9.19,0.12-18.38-0.02-27.56-0.41c-3.88-0.17-7.81-0.19-11.57-1.32c-2.83-0.85-5.46-2.33-6-5.45c-0.21,0.81-0.43,1.62-0.64,2.43
			c12.26-13.13,24.52-26.27,36.78-39.4c5.02-5.37,10.93-11.38,12.08-18.98c0.27-1.76,0.27-3.47,0-5.23c-0.16-1-0.4-1.93-1.34-2.49
			c-0.96-0.56-2.23-0.88-3.28-1.26c-3.75-1.35-7.56-2.54-11.41-3.56c-31.67-8.37-65.01-5.66-96.95-0.45
			c-16.81,2.74-33.55,6.08-50.16,9.86c-8.59,1.96-17.15,4.08-25.65,6.41c-4.15,1.14-8.29,2.32-12.41,3.57
			c-3.96,1.19-8.2,2.17-11.97,3.89c-2.91,1.32-5.98,4.53-4.23,7.91c1.01,1.95,3.96,2.02,5.89,2.42c2.2,0.45,4.41,0.86,6.63,1.23
			c8.5,1.42,17.07,2.32,25.64,3.13c17.36,1.62,34.67,3.37,51.93,5.86c34.53,4.98,68.76,12.09,102.39,21.36
			c4.04,1.11,8.07,2.28,12.05,3.62c3.83,1.29,7.81,2.64,11.37,4.6c1.04,0.57,2.46,1.38,2.73,2.65c0.35,1.64-1.08,3.96-1.69,5.44
			c-1.5,3.66-3.01,7.32-4.53,10.97c-6.15,14.74-12.63,29.39-20.34,43.39c-3.84,6.98-7.99,13.8-12.53,20.34
			c-4.23,6.09-8.7,12.34-14.4,17.16c-5.98,5.07-13.06,6.79-20.79,6.39c-8.37-0.43-16.78-2.27-24.97-3.98
			c-16.56-3.45-32.86-8.13-48.72-14c-6.9-2.55-14.17-5-20.48-8.86c-5.78-3.54-9.92-8.9-9.06-16c0.87-7.21,5.55-13.6,9.98-19.09
			c4.72-5.82,9.95-11.22,15.53-16.21c11.11-9.92,23.6-18.17,36.55-25.47c13.73-7.74,28.03-14.93,42.77-20.54
			c15.24-5.8,31.41-9.57,47.8-8.3c7.56,0.59,15.12,2.32,22.07,5.39c-0.38-0.94-0.77-1.88-1.15-2.82
			c-5.06,16.18-17.83,28.16-28.67,40.59c-10.84,12.43-21.33,28.04-20.69,45.27c0.18,4.86,1.34,9.55,3.42,13.94
			c2.22,4.7,5.37,8.89,7.65,13.56c0.5-1.22,1-2.45,1.49-3.67c-9.52,1.9-16.52-7.32-20.07-14.79c-2.15-4.53-3.74-9.32-5.93-13.84
			c-2.19-4.54-5.64-7.39-10.56-8.57c-4.79-1.15-9.77-1.68-14.61-2.61c-4.96-0.95-9.9-2.02-14.8-3.23
			c-9.77-2.41-19.42-5.38-28.76-9.13c-9.15-3.68-18-8.2-26.26-13.6c-3.8-2.49-8.05-5.08-10.9-8.69c-1.28-1.62-2.19-3.57-2.07-5.68
			c0.13-2.2,1.31-4.25,2.62-5.97c5.42-7.11,13.77-12.19,21.91-15.57c8.52-3.54,17.62-5.57,26.72-6.87
			c21.76-3.11,44.17-2.33,65.69,2.17c2.65,0.55,5.29,1.17,7.92,1.83c-0.58-1.03-1.16-2.05-1.75-3.08
			c-5.17,13.04-15.05,23.45-25.41,32.59c-5.39,4.75-10.99,9.28-16.6,13.76c-5.84,4.67-11.88,9.16-18.49,12.69
			c-14.4,7.69-30.81,7.82-46.74,8.24c-17.07,0.45-34.15,0.22-51.2-0.71c-19.11-1.04-38.18-2.95-57.12-5.73c0,1.61,0,3.21,0,4.82
			c33.29-10.42,67.93-15.37,102.52-18.99c9.83-1.03,19.67-1.96,29.51-2.89c1.11-0.1,2.1-0.7,2.41-1.84
			c0.27-0.99-0.15-2.38-1.15-2.82c-8.93-4.02-17.74-8.32-26.4-12.89c-0.64,1.52-1.28,3.05-1.93,4.57
			c6.78,2.06,13.81,3.21,20.89,3.44c1.78,0.06,2.64-1.64,2.41-3.16c-0.85-5.61-3.94-10.42-7.38-14.79c-3.77-4.77-7.9-9.29-12-13.77
			c-8.47-9.26-17.35-18.15-26.61-26.62c-4.17-3.81-8.49-7.55-13.33-10.49c-4.22-2.56-9.64-5.39-14.74-4.48
			c-6.59,1.18-5.69,8.68-5.62,13.73c0.08,6.42,0.43,12.83,1.04,19.21c1.38,14.42,4.06,28.7,8.02,42.63
			c0.27,0.95,1.33,1.97,2.41,1.84c7.74-0.95,8.03-11.22,8.66-17.21c0.78-7.46,0.75-14.99-0.04-22.45
			C87,97.64,82.55,83.13,75.39,69.99c-4.05-7.44-8.99-14.38-14.66-20.68C58.57,46.91,55.05,50.45,57.19,52.84L57.19,52.84z"/>
	</g>
</g>
<rect x="102.29" y="22.41" class="st0" width="288.1" height="138.79"/>
<polygon class="st1" points="88.97,224.99 67.34,240.03 43.51,228.81 41.3,202.56 62.93,187.53 86.77,198.75 "/>
</svg>
